<?xml version="1.0" standalone="no"?>
<!DOCTYPE svg PUBLIC "-//W3C//DTD SVG 20010904//EN"
 "http://www.w3.org/TR/2001/REC-SVG-20010904/DTD/svg10.dtd">
<svg version="1.0" xmlns="http://www.w3.org/2000/svg"
 width="128.000000pt" height="128.000000pt" viewBox="0 0 128.000000 128.000000"
 preserveAspectRatio="xMidYMid meet">
<metadata>
Created by potrace 1.11, written by Peter Selinger 2001-2013
</metadata>
<g transform="translate(0.000000,128.000000) scale(0.100000,-0.100000)"
fill="#000000" stroke="none">
<path d="M565 1259 c-176 -28 -319 -150 -360 -308 -11 -44 -11 -45 -57 -46
-107 -4 -136 -60 -133 -255 1 -113 5 -141 20 -168 25 -42 88 -72 131 -62 32 7
33 7 40 -34 3 -22 13 -58 21 -78 27 -68 220 -229 330 -275 103 -42 222 5 394
157 78 69 101 103 115 170 l11 55 47 1 c57 2 110 35 129 82 9 22 13 79 12 175
-1 141 -2 144 -29 180 -31 40 -87 62 -131 51 -14 -3 -25 -2 -23 2 4 16 -14 78
-34 119 -84 167 -286 265 -483 234z m115 -422 c21 -23 62 -56 91 -71 46 -26
64 -29 140 -30 l88 -1 -4 -150 c-6 -219 -10 -236 -85 -314 -24 -26 -133 -107
-171 -128 -60 -34 -95 -42 -133 -32 -48 13 -168 95 -238 161 -72 69 -80 97
-84 303 l-3 160 82 0 c69 0 91 4 138 28 31 15 74 47 95 71 22 24 41 45 43 45
2 1 20 -18 41 -42z"/>
<path d="M482 584 c-38 -26 -22 -74 24 -74 45 0 58 50 19 76 -18 12 -24 11
-43 -2z"/>
<path d="M758 592 c-10 -2 -21 -15 -25 -29 -8 -34 29 -68 57 -53 49 26 22 95
-32 82z"/>
</g>
</svg>
